<svg class="cart3_pf" viewBox="0 1 62.87 62.872">
  <path id="cart3_pf" d="M 0 3.095718145370483 C 0 1.938285112380981 0.9382845163345337 0.9999995827674866 2.09571647644043 0.9999999403953552 L 8.382864952087402 0.9999999403953552 C 9.34473705291748 1.000265836715698 10.182936668396 1.655272245407104 10.41571044921875 2.588554620742798 L 12.11324119567871 9.38287353515625 L 60.77577209472656 9.38287353515625 C 61.40336608886719 9.38325309753418 61.99776458740234 9.66487979888916 62.39553070068359 10.15032386779785 C 62.79330444335938 10.63576793670654 62.95257949829102 11.27392768859863 62.82957458496094 11.88935279846191 L 58.63814163208008 32.84653472900391 C 58.44949722290039 33.78670501708984 57.64680862426758 34.47891235351562 56.68912124633789 34.52730178833008 L 17.30223083496094 36.50566101074219 L 18.50517463684082 42.91436767578125 L 54.48862457275391 42.91436767578125 C 55.64605331420898 42.91436767578125 56.5843391418457 43.85265350341797 56.5843391418457 45.01008605957031 C 56.5843391418457 46.16751861572266 55.64605331420898 47.10580444335938 54.48862457275391 47.10580444335938 L 16.7657299041748 47.10580444335938 C 15.75774002075195 47.10486602783203 14.89320659637451 46.38648223876953 14.70773601531982 45.39569854736328 L 8.424779891967773 11.92707538604736 L 6.74820613861084 5.191436767578125 L 2.095716238021851 5.191436767578125 C 0.9382840394973755 5.191436767578125 0 4.253151416778564 0 3.095718145370483 Z M 13.00182437896729 13.57431030273438 L 16.52262687683105 32.34775543212891 L 54.84908676147461 30.42388725280762 L 58.21899795532227 13.57431030273438 L 13.00182437896729 13.57431030273438 Z M 20.95716285705566 47.10580444335938 C 16.32743453979492 47.10580444335938 12.57429790496826 50.85894393920898 12.57429790496826 55.48867797851562 C 12.57429790496826 60.118408203125 16.32743453979492 63.87155151367188 20.95716285705566 63.87155151367188 C 25.58689117431641 63.87155151367188 29.34002876281738 60.118408203125 29.34002876281738 55.48867797851562 C 29.34002876281738 50.85894393920898 25.58689117431641 47.10580444335938 20.95716285705566 47.10580444335938 Z M 50.29719161987305 47.10580444335938 C 45.66746139526367 47.10580444335938 41.91432571411133 50.85894393920898 41.91432571411133 55.48867797851562 C 41.91432571411133 60.118408203125 45.66746139526367 63.87155151367188 50.29719161987305 63.87155151367188 C 54.92691802978516 63.87155151367188 58.68005752563477 60.118408203125 58.68005752563477 55.48867797851562 C 58.68005752563477 50.85894393920898 54.92691802978516 47.10580444335938 50.29719161987305 47.10580444335938 Z M 20.95716285705566 51.2972412109375 C 23.27202606201172 51.2972412109375 25.14859580993652 53.17381286621094 25.14859580993652 55.48867797851562 C 25.14859580993652 57.80354690551758 23.27202606201172 59.68011474609375 20.95716285705566 59.68011474609375 C 18.64229965209961 59.68011474609375 16.7657299041748 57.80353927612305 16.7657299041748 55.48867797851562 C 16.7657299041748 53.17380905151367 18.64229965209961 51.2972412109375 20.95716285705566 51.2972412109375 Z M 50.29719161987305 51.2972412109375 C 52.61205673217773 51.2972412109375 54.48862457275391 53.17381286621094 54.48862457275391 55.48867797851562 C 54.48862457275391 57.80354690551758 52.61205291748047 59.68011474609375 50.29719161987305 59.68011474609375 C 47.98232269287109 59.68011474609375 46.10575866699219 57.80353927612305 46.10575866699219 55.48867797851562 C 46.10575866699219 53.17380905151367 47.98233032226562 51.2972412109375 50.29719161987305 51.2972412109375 Z">
  </path>
</svg>